<svg xmlns="http://www.w3.org/2000/svg" width="300" height="69" viewBox="0 0 300 69">
  <path id="pru-logo_white" d="M176.863,263.33l-2.317.4.605-4.626-.605-.906.605-5.23,5.947,2.415Zm9.475,13.881h0a33.408,33.408,0,0,0,6.451-17.5h0l-4.645-1.609-2.217,7.543-7.357,11.568Zm-2.721-11.969h0l3.225-7.543-4.645-1.911-4.335,12.171-3.024,2.515-3.831,6.739h3.831l5.849-9.454,2.924-2.515ZM168.9,277.211h-4.837l8.971-11.164.907,1.709Zm-10.483,13.881a33.923,33.923,0,0,1-26.61-12.27h53.118C178.778,286.767,168.193,291.091,158.417,291.091Zm15.22-49.385h0l17.842,4.83h0c-1.815-8.349-12.6-24.441-32.856-24.441-21.067,0-35.077,17.2-35.077,33.493a34.975,34.975,0,0,0,6.853,21.734c2.217-5.028,6.451-15.288,6.451-15.288h0l1.815-1.006,2.62-7.245,1.512-.7-5.952,18.184-4.233,5.934h1.815l7.156-8.549,3.427-13.282,1.311,1.811h0c-.5,6.136-.3,4.626-.705,8.047h0L137.049,277.2h2.016l8.367-6.337.5.2-3.124,6.134h9.274l14.212-9.454,4.333-15.79,10.483-.5-4.032-2.615L156.1,245.009h0c-5.04-5.33-5.241-5.632-5.241-5.632h0l6.048.5-4.335-4.024v-4.124l5.644,1.006,15.422,8.952Zm-15.017-17.4c-19.757,0-32.658,16.194-32.658,31.28a30.636,30.636,0,0,0,4.435,17.1c2.924-7.845,8.773-23.435,8.773-23.435a16.072,16.072,0,0,1,2.721-1.207h0l3.932-9.956,2.52-1.307,3.124-6.638,6.855,1.107,13.91,7.745,15.623,4.324h0c-4.032-10.26-15.422-19.011-29.232-19.011Zm252.722,54.277v-1.5h.3a3.064,3.064,0,0,0,1.808-.5c.4-.345.652-.7.652-2.506h0v-24.65h0a4.581,4.581,0,0,0-.753-3.007,2.9,2.9,0,0,0-1.858-.652h-.9v-1.5l9.633-.75v30.563h0c0,1.654.251,2.154.652,2.506a3.977,3.977,0,0,0,2.26.5h.4v1.5Zm-30.479-27.156a3.81,3.81,0,1,1,2.7-1.111,3.81,3.81,0,0,1-2.7,1.111Zm21.24,27.156c.05,0-.052-3.807-.1-3.807-.4,1.954-3.415,4.509-6.778,4.509-5.272,0-6.929-3.707-6.929-6.063,0-5.561,5.573-7.417,13.256-8.918h0v-3.957h0c0-2.706-1.154-4.312-4.72-4.312a5.637,5.637,0,0,0-4.77,2.3v.1a1.77,1.77,0,0,1,1.455-.6,2.664,2.664,0,0,1,2.964,2.76,3.231,3.231,0,0,1-3.365,2.855,3.383,3.383,0,0,1-3.514-3.507c0-3.307,3.867-5.561,8.837-5.561,4.418,0,9.239,1.252,9.239,8.116h0v11.523h0c0,1.7.251,2.255.652,2.556a2.747,2.747,0,0,0,1.706.5h.5v1.5h-8.429Zm-27.315,0v-1.5h.753a2.2,2.2,0,0,0,1.958-.7,7.5,7.5,0,0,0,.452-3.557h0V260.246h0c0-1,.1-2.4-.753-3.1a3.766,3.766,0,0,0-2.36-.5h-.5v-1.552h9.791v17.731h0a6.918,6.918,0,0,0,.452,3.557,2.1,2.1,0,0,0,1.908.7h.953v1.5Zm-1.306-2.255h0a17,17,0,0,0,.86-6.463h-1.858c0,1.8.05,4.509-.9,5.865a1.8,1.8,0,0,1-1.607.9c-1.756,0-1.958-1.552-1.958-3.157h0V256.641h4.619v-1.552h-4.719V244.266h-1.548c0,3.559-2.912,10.822-8.386,10.822h-.4v1.552H361.8v16.083h0c0,2.907.86,6.563,5.924,6.563,2.862,0,4.77-.852,5.775-2.955Zm-24.05,2.255v-17.5h0c0-3.45-1.657-3.709-3.014-3.709a3.429,3.429,0,0,0-2.811,1.754,11.055,11.055,0,0,0-1,5.061h0v8.668h0c0,2-.1,3,.344,3.507.4.452.953.7,2.259.7h.7v1.5H333.1v-1.5h.753a2.83,2.83,0,0,0,2.209-.7c.452-.5.344-1.5.344-3.507h0V260.787h0a7.392,7.392,0,0,0-.4-3.507,2.243,2.243,0,0,0-1.958-.7H333.1v-1.5h8.945l.1,3.657h.05a6.818,6.818,0,0,1,6.628-4.359c5.422,0,6.728,2.957,6.728,7.866h0v10.672h0c0,1.954-.05,2.8.4,3.45a2.246,2.246,0,0,0,1.959.7h.955v1.5Zm-32.386-12.525a25.323,25.323,0,0,0,.344,5.311c.5,2.857,1.706,5.865,5.071,5.865a6.9,6.9,0,0,0,6.881-6.665H331.3a9.471,9.471,0,0,1-9.69,8.718c-7.531,0-11.247-5.311-11.247-12.475,0-7.417,4.87-12.42,11.046-12.42,7.33,0,10.192,5.311,10.192,11.674H317.038Zm-16.619,12.525-.1-3.657h0a6.927,6.927,0,0,1-6.578,4.359c-7.431,0-9.389-6.764-9.389-12.475,0-5.661,3.415-12.42,10.192-12.42,3.365,0,4.72,1.352,5.223,2.355h0V249.43h0c0-1.3,0-2.255-.753-3.007a3.1,3.1,0,0,0-2.31-.652h-.451v-1.5l9.633-.75v30.563h0c0,1.654.251,2.154.652,2.506a3.9,3.9,0,0,0,2.209.5h.654v1.5Zm-26.109,0-.1-3.657h0s-.05.15-.05,0a7.113,7.113,0,0,1-6.576,4.359c-5.677,0-6.929-3.307-6.929-7.666h0V261.5h0a13.281,13.281,0,0,0-.3-4.359c-.15-.25-.4-.55-1.706-.55h-.344v-1.5h8.536v17.186h0c0,3.757,2.064,3.859,3.062,3.859a4.072,4.072,0,0,0,3.564-3.507,15.208,15.208,0,0,0,.3-3.759h0V261.5h0a9.654,9.654,0,0,0-.4-4.259c-.4-.45-.955-.65-2.51-.65h-.5v-1.5h9.54v17.836h0a6.853,6.853,0,0,0,.552,3.45,2.015,2.015,0,0,0,1.858.7h.9v1.5h-8.887ZM254.032,260.3a2.615,2.615,0,0,1-2.813-2.255,2.8,2.8,0,0,1,.251-1.3h-.05c-2.408,2-2.962,9.62-2.962,12.577h0v3.607h0a7.053,7.053,0,0,0,.452,3.45c.452.652,1.607.7,2.26.7h2.259v1.5H237.565v-1.5h1.507c1.607,0,2.408-.25,2.811-.9a8.4,8.4,0,0,0,.452-3.307h0V263.7h0a22.324,22.324,0,0,0-.452-6.063c-.4-.852-1-1.052-2.36-1.052h-.552v-1.5H247.5l.251,6.012h.052c.251-2.907,1.958-6.714,5.874-6.714,2.109,0,3.415,1,3.415,2.957a2.9,2.9,0,0,1-3.064,2.955Zm-29.273,3.407h0c7.13,0,13.1-2.76,13.1-9.67,0-7.264-6.076-9.77-13.1-9.77H211v1.5h1.054a6.275,6.275,0,0,1,2.761.345c.8.4,1.054,1.5,1.054,3.1h0v24.7h0a3.232,3.232,0,0,1-.753,2.555,4.718,4.718,0,0,1-2.711.6H211v1.5h15.917v-1.5h-1.256a3.74,3.74,0,0,1-2.711-.7,3.585,3.585,0,0,1-.6-2.455h0V263.7Zm176.79,2.1c-4.473.85-6.929,2-6.929,6.555,0,2.655,1.355,4.009,2.861,4.009a3.375,3.375,0,0,0,3.315-2.154,11.551,11.551,0,0,0,.753-4.657h0v-3.757Zm-80.186-10.122c-4.116,0-4.168,6.413-4.268,8.768h8.235C325.38,261.9,325.178,255.688,321.363,255.688Zm-21.589,8.5c0-2.907-.4-7.866-4.166-7.866-4.268,0-4.318,7.114-4.318,10.472,0,2.906.2,9.77,4.168,9.77a3.685,3.685,0,0,0,3.365-2.356,12.707,12.707,0,0,0,.953-5.159h0v-4.861Zm-75.015-18.438h0c5.573,0,6.578,4.209,6.578,8.268s-1,8.018-6.578,8.018h-2.408V245.756Z" transform="translate(-123.535 -222.095)" fill="#fff" fill-rule="evenodd"/>
</svg>
